<?xml version="1.0" encoding="UTF-8"?> <svg xmlns="http://www.w3.org/2000/svg" width="168" height="58" viewBox="0 0 168 58" fill="none"> <path d="M35.5025 40.0371C37.2234 40.0371 38.6937 40.6719 39.9133 41.9417C41.133 43.2115 41.7428 44.7736 41.7428 46.6282C41.7428 48.466 41.133 50.0282 39.9133 51.3147C38.6937 52.5844 37.2234 53.2193 35.5025 53.2193C33.5979 53.2193 32.1359 52.5092 31.1168 51.0891V52.8935H28.4102V35.3506H31.1168V42.1422C32.1359 40.7388 33.5979 40.0371 35.5025 40.0371ZM32.2445 49.5102C32.9964 50.2621 33.9404 50.638 35.0765 50.638C36.2126 50.638 37.1566 50.2621 37.9084 49.5102C38.6602 48.7417 39.0362 47.781 39.0362 46.6282C39.0362 45.4754 38.6602 44.523 37.9084 43.7712C37.1566 43.0026 36.2126 42.6184 35.0765 42.6184C33.9404 42.6184 32.9964 43.0026 32.2445 43.7712C31.4927 44.523 31.1168 45.4754 31.1168 46.6282C31.1168 47.781 31.4927 48.7417 32.2445 49.5102Z" fill="white"></path> <path d="M50.1103 53.2193C48.2725 53.2193 46.7104 52.5844 45.4239 51.3147C44.1374 50.0449 43.4941 48.4827 43.4941 46.6282C43.4941 44.7736 44.1374 43.2115 45.4239 41.9417C46.7104 40.6719 48.2725 40.0371 50.1103 40.0371C51.9649 40.0371 53.527 40.6719 54.7968 41.9417C56.0833 43.2115 56.7265 44.7736 56.7265 46.6282C56.7265 48.4827 56.0833 50.0449 54.7968 51.3147C53.527 52.5844 51.9649 53.2193 50.1103 53.2193ZM47.3285 49.4601C48.0804 50.212 49.0076 50.5879 50.1103 50.5879C51.213 50.5879 52.1403 50.212 52.8921 49.4601C53.644 48.7083 54.0199 47.7643 54.0199 46.6282C54.0199 45.4921 53.644 44.5481 52.8921 43.7963C52.1403 43.0444 51.213 42.6685 50.1103 42.6685C49.0076 42.6685 48.0804 43.0444 47.3285 43.7963C46.5767 44.5481 46.2008 45.4921 46.2008 46.6282C46.2008 47.7643 46.5767 48.7083 47.3285 49.4601Z" fill="white"></path> <path d="M65.0884 53.2193C63.2506 53.2193 61.6884 52.5844 60.4019 51.3147C59.1155 50.0449 58.4722 48.4827 58.4722 46.6282C58.4722 44.7736 59.1155 43.2115 60.4019 41.9417C61.6884 40.6719 63.2506 40.0371 65.0884 40.0371C66.9429 40.0371 68.5051 40.6719 69.7749 41.9417C71.0614 43.2115 71.7046 44.7736 71.7046 46.6282C71.7046 48.4827 71.0614 50.0449 69.7749 51.3147C68.5051 52.5844 66.9429 53.2193 65.0884 53.2193ZM62.3066 49.4601C63.0584 50.212 63.9857 50.5879 65.0884 50.5879C66.1911 50.5879 67.1184 50.212 67.8702 49.4601C68.6221 48.7083 68.998 47.7643 68.998 46.6282C68.998 45.4921 68.6221 44.5481 67.8702 43.7963C67.1184 43.0444 66.1911 42.6685 65.0884 42.6685C63.9857 42.6685 63.0584 43.0444 62.3066 43.7963C61.5548 44.5481 61.1788 45.4921 61.1788 46.6282C61.1788 47.7643 61.5548 48.7083 62.3066 49.4601Z" fill="white"></path> <path d="M80.8994 42.9692H77.7918V48.984C77.7918 49.5019 77.9087 49.8778 78.1426 50.1117C78.3765 50.3289 78.719 50.4542 79.1701 50.4876C79.638 50.5043 80.2144 50.496 80.8994 50.4626V52.8935C78.8276 53.1441 77.3407 52.9687 76.4385 52.3672C75.5362 51.7491 75.0851 50.6213 75.0851 48.984V42.9692H72.7795V40.3629H75.0851V37.6562L77.7918 36.8543V40.3629H80.8994V42.9692Z" fill="white"></path> <path d="M88.7547 53.2193C86.8668 53.2193 85.2879 52.5844 84.0181 51.3147C82.7651 50.0449 82.1385 48.4827 82.1385 46.6282C82.1385 44.7569 82.7651 43.1948 84.0181 41.9417C85.2879 40.6719 86.8668 40.0371 88.7547 40.0371C89.9744 40.0371 91.0854 40.3294 92.0879 40.9142C93.0903 41.499 93.8422 42.2842 94.3434 43.27L92.0127 44.6233C91.7287 44.0218 91.2943 43.554 90.7095 43.2198C90.1415 42.869 89.4815 42.6936 88.7297 42.6936C87.627 42.6936 86.6997 43.0695 85.9479 43.8213C85.2127 44.5732 84.8452 45.5088 84.8452 46.6282C84.8452 47.7476 85.2127 48.6832 85.9479 49.4351C86.6997 50.1869 87.627 50.5628 88.7297 50.5628C89.4648 50.5628 90.1247 50.3874 90.7095 50.0365C91.311 49.6857 91.7621 49.2179 92.0628 48.6331L94.3935 49.9613C93.8589 50.9638 93.0903 51.7574 92.0879 52.3422C91.0854 52.9269 89.9744 53.2193 88.7547 53.2193Z" fill="white"></path> <path d="M106.078 40.3629H108.785V52.8935H106.078V51.0891C105.059 52.5092 103.597 53.2193 101.693 53.2193C99.9718 53.2193 98.5015 52.5844 97.2819 51.3147C96.0622 50.0282 95.4524 48.466 95.4524 46.6282C95.4524 44.7736 96.0622 43.2115 97.2819 41.9417C98.5015 40.6719 99.9718 40.0371 101.693 40.0371C103.597 40.0371 105.059 40.7388 106.078 42.1422V40.3629ZM99.2868 49.5102C100.039 50.2621 100.983 50.638 102.119 50.638C103.255 50.638 104.199 50.2621 104.951 49.5102C105.702 48.7417 106.078 47.781 106.078 46.6282C106.078 45.4754 105.702 44.523 104.951 43.7712C104.199 43.0026 103.255 42.6184 102.119 42.6184C100.983 42.6184 100.039 43.0026 99.2868 43.7712C98.5349 44.523 98.159 45.4754 98.159 46.6282C98.159 47.781 98.5349 48.7417 99.2868 49.5102Z" fill="white"></path> <path d="M125.623 40.0371C127.043 40.0371 128.188 40.4965 129.057 41.4154C129.925 42.3343 130.36 43.5707 130.36 45.1245V52.8935H127.653V45.2999C127.653 44.4311 127.436 43.7628 127.002 43.295C126.567 42.8105 125.974 42.5683 125.222 42.5683C124.387 42.5683 123.719 42.8439 123.217 43.3953C122.733 43.9466 122.491 44.7736 122.491 45.8763V52.8935H119.784V45.2999C119.784 44.4311 119.575 43.7628 119.157 43.295C118.756 42.8105 118.18 42.5683 117.428 42.5683C116.61 42.5683 115.941 42.8523 115.423 43.4203C114.905 43.9717 114.646 44.7904 114.646 45.8763V52.8935H111.94V40.3629H114.646V41.8665C115.448 40.6469 116.643 40.0371 118.23 40.0371C119.834 40.0371 121.02 40.697 121.789 42.0169C122.624 40.697 123.902 40.0371 125.623 40.0371Z" fill="white"></path> <path d="M140.349 40.0371C142.07 40.0371 143.54 40.6803 144.76 41.9668C145.979 43.2366 146.589 44.7904 146.589 46.6282C146.589 48.4827 145.979 50.0449 144.76 51.3147C143.54 52.5844 142.07 53.2193 140.349 53.2193C138.444 53.2193 136.982 52.5176 135.963 51.1142V57.9058H133.257V40.3629H135.963V42.1673C136.982 40.7471 138.444 40.0371 140.349 40.0371ZM137.091 49.5102C137.843 50.2621 138.787 50.638 139.923 50.638C141.059 50.638 142.003 50.2621 142.755 49.5102C143.507 48.7417 143.883 47.781 143.883 46.6282C143.883 45.4754 143.507 44.523 142.755 43.7712C142.003 43.0026 141.059 42.6184 139.923 42.6184C138.787 42.6184 137.843 43.0026 137.091 43.7712C136.339 44.523 135.963 45.4754 135.963 46.6282C135.963 47.781 136.339 48.7417 137.091 49.5102Z" fill="white"></path> <path d="M17.2936 23.4824L25.2363 31.4378L17.3273 39.3594L9.38458 31.404L17.2936 23.4824Z" fill="white"></path> <path d="M0.416138 0.739258H167.04V31.4586H0.416138V0.739258Z" fill="white"></path> <path d="M37.4169 9.86322V22.3348H34.7502V12.4573H30.6267V17.0967C30.6267 19.0755 30.1988 20.4807 29.3428 21.3121C28.4868 22.1435 27.2687 22.4844 25.6884 22.3348V19.8155C26.4456 19.9485 27.0135 19.7906 27.3921 19.3416C27.7707 18.8926 27.96 18.1028 27.96 16.972V9.86322H37.4169Z" fill="#602B7A"></path> <path d="M48.7961 9.86322V12.4573H43.1911V22.3348H40.5244V9.86322H48.7961Z" fill="#602B7A"></path> <path d="M55.9486 22.659C54.1379 22.659 52.5988 22.0271 51.3313 20.7633C50.0637 19.4996 49.43 17.9448 49.43 16.099C49.43 14.2532 50.0637 12.6984 51.3313 11.4346C52.5988 10.1709 54.1379 9.53896 55.9486 9.53896C57.7758 9.53896 59.3149 10.1709 60.5659 11.4346C61.8334 12.6984 62.4672 14.2532 62.4672 16.099C62.4672 17.9448 61.8334 19.4996 60.5659 20.7633C59.3149 22.0271 57.7758 22.659 55.9486 22.659ZM53.2078 18.9176C53.9486 19.6659 54.8622 20.04 55.9486 20.04C57.035 20.04 57.9486 19.6659 58.6894 18.9176C59.4301 18.1693 59.8005 17.2297 59.8005 16.099C59.8005 14.9682 59.4301 14.0287 58.6894 13.2804C57.9486 12.5321 57.035 12.158 55.9486 12.158C54.8622 12.158 53.9486 12.5321 53.2078 13.2804C52.4671 14.0287 52.0967 14.9682 52.0967 16.099C52.0967 17.2297 52.4671 18.1693 53.2078 18.9176Z" fill="#602B7A"></path> <path d="M71.2766 9.53896C72.9721 9.53896 74.4207 10.1792 75.6223 11.4596C76.824 12.7234 77.4249 14.2698 77.4249 16.099C77.4249 17.9448 76.824 19.4996 75.6223 20.7633C74.4207 22.0271 72.9721 22.659 71.2766 22.659C69.4 22.659 67.9596 21.9606 66.9554 20.5638V26.4372H64.2887V9.86322H66.9554V11.6591C67.9596 10.2457 69.4 9.53896 71.2766 9.53896ZM68.0666 18.9674C68.8073 19.7157 69.7374 20.0899 70.8568 20.0899C71.9762 20.0899 72.9062 19.7157 73.647 18.9674C74.3877 18.2025 74.7581 17.2464 74.7581 16.099C74.7581 14.9516 74.3877 14.0038 73.647 13.2555C72.9062 12.4906 71.9762 12.1081 70.8568 12.1081C69.7374 12.1081 68.8073 12.4906 68.0666 13.2555C67.3258 14.0038 66.9554 14.9516 66.9554 16.099C66.9554 17.2464 67.3258 18.2025 68.0666 18.9674Z" fill="#602B7A"></path> <path d="M88.1905 9.86322H90.2399V22.3348H87.6226V14.4029L81.3014 22.3348H79.2519V9.86322H81.8693V17.7702L88.1905 9.86322Z" fill="#602B7A"></path> <path d="M102.766 9.86322V12.4573H98.7416V22.3348H96.0749V12.4573H92.0254V9.86322H102.766Z" fill="#602B7A"></path> <path d="M117.163 9.86322V22.3348H114.571V14.1285L111.015 19.8405H110.694L107.163 14.1534V22.3348H104.571V9.86322H107.287L110.867 15.6251L114.447 9.86322H117.163Z" fill="#602B7A"></path> <path d="M129.182 9.86322H131.232V22.3348H128.615V14.4029L122.294 22.3348H120.244V9.86322H122.861V17.7702L129.182 9.86322Z" fill="#602B7A"></path> <path d="M144.945 22.3348H141.76L136.698 16.5729V22.3348H134.031V9.86322H136.698V15.3756L141.488 9.86322H144.747L139.315 15.9743L144.945 22.3348Z" fill="#602B7A"></path> <path d="M154.938 9.86322H157.605V22.3348H154.938V20.5389C153.934 21.9523 152.494 22.659 150.617 22.659C148.922 22.659 147.473 22.0271 146.271 20.7633C145.07 19.4829 144.469 17.9282 144.469 16.099C144.469 14.2532 145.07 12.6984 146.271 11.4346C147.473 10.1709 148.922 9.53896 150.617 9.53896C152.494 9.53896 153.934 10.2374 154.938 11.6342V9.86322ZM148.247 18.9674C148.987 19.7157 149.917 20.0899 151.037 20.0899C152.156 20.0899 153.086 19.7157 153.827 18.9674C154.568 18.2025 154.938 17.2464 154.938 16.099C154.938 14.9516 154.568 14.0038 153.827 13.2555C153.086 12.4906 152.156 12.1081 151.037 12.1081C149.917 12.1081 148.987 12.4906 148.247 13.2555C147.506 14.0038 147.136 14.9516 147.136 16.099C147.136 17.2464 147.506 18.2025 148.247 18.9674Z" fill="#602B7A"></path> <path d="M22.128 22.3348L20.6177 18.8178H13.8348L12.3501 22.3348H9.26367L15.7517 5.76074H18.7008L25.1898 22.3348H22.128ZM14.7195 16.1239H19.733L17.2262 9.1576L14.7195 16.1239Z" fill="#602B7A"></path> </svg> 