<svg width="164" height="28" viewBox="0 0 164 28" fill="none" xmlns="http://www.w3.org/2000/svg">
<path d="M163.901 19.7524V0.454102H158.927V16.8947L150.318 21.8339L141.745 16.8947V0.454102H136.771V19.7524L150.318 27.5846L163.901 19.7524Z" fill="white"/>
<path d="M0.307129 8.2863V27.5846H5.28164V11.144L13.8547 6.20477L22.4631 11.144V27.5846H27.4376V8.2863L13.8547 0.454102L0.307129 8.2863Z" fill="white"/>
<path d="M90.8007 0.454102V20.6344L73.6193 0.454102H68.6448V27.5846H73.6193V8.1099L90.1657 27.5846H90.8007H91.2241H95.7752V0.454102H90.8007Z" fill="white"/>
<path d="M124.881 22.6101H102.726V27.5846H124.881H129.856V22.6101V17.6709H124.881V22.6101Z" fill="white"/>
<path d="M129.856 5.42861V0.454102H102.726V0.489382V5.42861V11.4968V14.8484V16.4713H129.856V11.4968H107.665V5.42861H129.856Z" fill="white"/>
<path d="M53.6861 0.454102H41.3734V5.42861H50.8284L55.7677 14.0017L50.8284 22.6101H39.3624V5.46389V5.42861V0.454102H34.3879V5.42861V22.6101V27.5846H39.3624H53.6861L61.5183 14.0017L53.6861 0.454102Z" fill="white"/>
</svg>
