<?xml version="1.0" encoding="UTF-8"?> <svg xmlns="http://www.w3.org/2000/svg" width="594" height="83" viewBox="0 0 594 83" fill="none"> <path d="M112.734 16.4275V66.3671H102.056V26.8149H85.5438V45.3925C85.5438 53.3162 83.8301 58.9428 80.4025 62.2721C76.9749 65.6014 72.0972 66.9664 65.7694 66.3671V56.2793C68.8015 56.812 71.0755 56.1794 72.5916 54.3816C74.1076 52.5838 74.8656 49.4209 74.8656 44.8931V16.4275H112.734Z" fill="#602B7A"></path> <path d="M158.299 16.4275V26.8149H135.855V66.3671H125.177V16.4275H158.299Z" fill="#602B7A"></path> <path d="M186.94 67.6655C179.689 67.6655 173.526 65.1353 168.451 60.0747C163.375 55.0142 160.837 48.7884 160.837 41.3973C160.837 34.0062 163.375 27.7804 168.451 22.7199C173.526 17.6593 179.689 15.1291 186.94 15.1291C194.256 15.1291 200.419 17.6593 205.429 22.7199C210.504 27.7804 213.042 34.0062 213.042 41.3973C213.042 48.7884 210.504 55.0142 205.429 60.0747C200.419 65.1353 194.256 67.6655 186.94 67.6655ZM175.965 52.6837C178.931 55.68 182.589 57.1782 186.94 57.1782C191.29 57.1782 194.948 55.68 197.915 52.6837C200.881 49.6873 202.364 45.9252 202.364 41.3973C202.364 36.8694 200.881 33.1073 197.915 30.111C194.948 27.1146 191.29 25.6164 186.94 25.6164C182.589 25.6164 178.931 27.1146 175.965 30.111C172.999 33.1073 171.516 36.8694 171.516 41.3973C171.516 45.9252 172.999 49.6873 175.965 52.6837Z" fill="#602B7A"></path> <path d="M248.317 15.1291C255.107 15.1291 260.907 17.6926 265.719 22.8198C270.531 27.8803 272.937 34.0728 272.937 41.3973C272.937 48.7884 270.531 55.0142 265.719 60.0747C260.907 65.1353 255.107 67.6655 248.317 67.6655C240.803 67.6655 235.035 64.8689 231.014 59.2757V82.7946H220.336V16.4275H231.014V23.6188C235.035 17.959 240.803 15.1291 248.317 15.1291ZM235.464 52.8834C238.43 55.8798 242.154 57.378 246.636 57.378C251.119 57.378 254.843 55.8798 257.809 52.8834C260.775 49.8204 262.259 45.9917 262.259 41.3973C262.259 36.8029 260.775 33.0075 257.809 30.0111C254.843 26.9481 251.119 25.4166 246.636 25.4166C242.154 25.4166 238.43 26.9481 235.464 30.0111C232.498 33.0075 231.014 36.8029 231.014 41.3973C231.014 45.9917 232.498 49.8204 235.464 52.8834Z" fill="#602B7A"></path> <path d="M316.046 16.4275H324.252V66.3671H313.772V34.6055L288.46 66.3671H280.253V16.4275H290.734V48.0892L316.046 16.4275Z" fill="#602B7A"></path> <path d="M374.411 16.4275V26.8149H358.295V66.3671H347.617V26.8149H331.402V16.4275H374.411Z" fill="#602B7A"></path> <path d="M432.062 16.4275V66.3671H421.68V33.5068L407.442 56.3792H406.157L392.018 33.6067V66.3671H381.637V16.4275H392.513L406.849 39.4996L421.186 16.4275H432.062Z" fill="#602B7A"></path> <path d="M480.189 16.4275H488.396V66.3671H477.915V34.6055L452.604 66.3671H444.397V16.4275H454.878V48.0892L480.189 16.4275Z" fill="#602B7A"></path> <path d="M543.306 66.3671H530.552L510.283 43.295V66.3671H499.605V16.4275H510.283V38.5008L529.464 16.4275H542.515L520.763 40.8979L543.306 66.3671Z" fill="#602B7A"></path> <path d="M583.322 16.4275H594V66.3671H583.322V59.1758C579.301 64.8356 573.534 67.6655 566.019 67.6655C559.23 67.6655 553.43 65.1353 548.618 60.0747C543.806 54.9476 541.4 48.7218 541.4 41.3973C541.4 34.0062 543.806 27.7804 548.618 22.7199C553.43 17.6593 559.23 15.1291 566.019 15.1291C573.534 15.1291 579.301 17.9257 583.322 23.5189V16.4275ZM556.528 52.8834C559.494 55.8798 563.218 57.378 567.7 57.378C572.182 57.378 575.907 55.8798 578.873 52.8834C581.839 49.8204 583.322 45.9917 583.322 41.3973C583.322 36.8029 581.839 33.0075 578.873 30.0111C575.907 26.9481 572.182 25.4166 567.7 25.4166C563.218 25.4166 559.494 26.9481 556.528 30.0111C553.561 33.0075 552.078 36.8029 552.078 41.3973C552.078 45.9917 553.561 49.8204 556.528 52.8834Z" fill="#602B7A"></path> <path d="M51.5125 66.3671L45.4648 52.2841H18.304L12.359 66.3671H0L25.9799 0H37.7889L63.7727 66.3671H51.5125ZM21.8467 41.4972H41.9221L31.8844 13.602L21.8467 41.4972Z" fill="#602B7A"></path> </svg> 