<svg width="513" height="40" viewBox="0 0 513 40" fill="none" xmlns="http://www.w3.org/2000/svg">
<path d="M17.1543 23.197L25.097 31.1524L17.188 39.074L9.24529 31.1186L17.1543 23.197Z" fill="white"/>
<path d="M0.276855 0.454102H166.901V31.1735H0.276855V0.454102Z" fill="white"/>
<path d="M37.2777 9.57856V22.0501H34.611V12.1726H30.4875V16.812C30.4875 18.7909 30.0595 20.196 29.2035 21.0274C28.3475 21.8589 27.1294 22.1998 25.5491 22.0501V19.5308C26.3063 19.6639 26.8743 19.5059 27.2529 19.0569C27.6315 18.6079 27.8208 17.8181 27.8208 16.6873V9.57856H37.2777Z" fill="#602B7A"/>
<path d="M48.6568 9.57856V12.1726H43.0518V22.0501H40.3851V9.57856H48.6568Z" fill="#602B7A"/>
<path d="M55.8093 22.3744C53.9986 22.3744 52.4595 21.7425 51.192 20.4787C49.9245 19.2149 49.2907 17.6601 49.2907 15.8143C49.2907 13.9685 49.9245 12.4138 51.192 11.15C52.4595 9.88619 53.9986 9.25429 55.8093 9.25429C57.6365 9.25429 59.1756 9.88619 60.4267 11.15C61.6942 12.4138 62.3279 13.9685 62.3279 15.8143C62.3279 17.6601 61.6942 19.2149 60.4267 20.4787C59.1756 21.7425 57.6365 22.3744 55.8093 22.3744ZM53.0685 18.6329C53.8093 19.3812 54.7229 19.7553 55.8093 19.7553C56.8957 19.7553 57.8093 19.3812 58.5501 18.6329C59.2908 17.8846 59.6612 16.9451 59.6612 15.8143C59.6612 14.6836 59.2908 13.744 58.5501 12.9958C57.8093 12.2475 56.8957 11.8733 55.8093 11.8733C54.7229 11.8733 53.8093 12.2475 53.0685 12.9958C52.3278 13.744 51.9574 14.6836 51.9574 15.8143C51.9574 16.9451 52.3278 17.8846 53.0685 18.6329Z" fill="#602B7A"/>
<path d="M71.1373 9.25429C72.8328 9.25429 74.2814 9.8945 75.4831 11.1749C76.6847 12.4387 77.2856 13.9852 77.2856 15.8143C77.2856 17.6601 76.6847 19.2149 75.4831 20.4787C74.2814 21.7425 72.8328 22.3744 71.1373 22.3744C69.2607 22.3744 67.8203 21.6759 66.8161 20.2791V26.1526H64.1494V9.57856H66.8161V11.3745C67.8203 9.96102 69.2607 9.25429 71.1373 9.25429ZM67.9273 18.6828C68.6681 19.4311 69.5982 19.8052 70.7175 19.8052C71.8369 19.8052 72.767 19.4311 73.5077 18.6828C74.2485 17.9179 74.6189 16.9617 74.6189 15.8143C74.6189 14.6669 74.2485 13.7191 73.5077 12.9708C72.767 12.2059 71.8369 11.8234 70.7175 11.8234C69.5982 11.8234 68.6681 12.2059 67.9273 12.9708C67.1866 13.7191 66.8161 14.6669 66.8161 15.8143C66.8161 16.9617 67.1866 17.9179 67.9273 18.6828Z" fill="#602B7A"/>
<path d="M88.0512 9.57856H90.1006V22.0501H87.4833V14.1182L81.1621 22.0501H79.1126V9.57856H81.73V17.4855L88.0512 9.57856Z" fill="#602B7A"/>
<path d="M102.627 9.57856V12.1726H98.6023V22.0501H95.9356V12.1726H91.8862V9.57856H102.627Z" fill="#602B7A"/>
<path d="M117.024 9.57856V22.0501H114.432V13.8438L110.876 19.5558H110.555L107.024 13.8688V22.0501H104.431V9.57856H107.148L110.728 15.3404L114.308 9.57856H117.024Z" fill="#602B7A"/>
<path d="M129.043 9.57856H131.093V22.0501H128.475V14.1182L122.154 22.0501H120.105V9.57856H122.722V17.4855L129.043 9.57856Z" fill="#602B7A"/>
<path d="M144.806 22.0501H141.62L136.559 16.2882V22.0501H133.892V9.57856H136.559V15.091L141.349 9.57856H144.608L139.176 15.6896L144.806 22.0501Z" fill="#602B7A"/>
<path d="M154.799 9.57856H157.465V22.0501H154.799V20.2542C153.795 21.6676 152.354 22.3744 150.478 22.3744C148.782 22.3744 147.334 21.7425 146.132 20.4787C144.93 19.1983 144.33 17.6435 144.33 15.8143C144.33 13.9685 144.93 12.4138 146.132 11.15C147.334 9.88619 148.782 9.25429 150.478 9.25429C152.354 9.25429 153.795 9.9527 154.799 11.3495V9.57856ZM148.107 18.6828C148.848 19.4311 149.778 19.8052 150.898 19.8052C152.017 19.8052 152.947 19.4311 153.688 18.6828C154.428 17.9179 154.799 16.9617 154.799 15.8143C154.799 14.6669 154.428 13.7191 153.688 12.9708C152.947 12.2059 152.017 11.8234 150.898 11.8234C149.778 11.8234 148.848 12.2059 148.107 12.9708C147.367 13.7191 146.996 14.6669 146.996 15.8143C146.996 16.9617 147.367 17.9179 148.107 18.6828Z" fill="#602B7A"/>
<path d="M21.9887 22.0501L20.4784 18.5331H13.6955L12.2108 22.0501H9.12439L15.6124 5.47607H18.5615L25.0505 22.0501H21.9887ZM14.5802 15.8393H19.5937L17.087 8.87293L14.5802 15.8393Z" fill="#602B7A"/>
<path d="M512.901 19.7524V0.454102H507.927V16.8947L499.318 21.8339L490.745 16.8947V0.454102H485.771V19.7524L499.318 27.5846L512.901 19.7524Z" fill="white"/>
<path d="M349.307 8.2863V27.5846H354.282V11.144L362.855 6.20477L371.463 11.144V27.5846H376.438V8.2863L362.855 0.454102L349.307 8.2863Z" fill="white"/>
<path d="M439.801 0.454102V20.6344L422.619 0.454102H417.645V27.5846H422.619V8.1099L439.166 27.5846H439.801H440.224H444.775V0.454102H439.801Z" fill="white"/>
<path d="M473.881 22.6101H451.726V27.5846H473.881H478.856V22.6101V17.6709H473.881V22.6101Z" fill="white"/>
<path d="M478.856 5.42861V0.454102H451.726V0.489382V5.42861V11.4968V14.8484V16.4713H478.856V11.4968H456.665V5.42861H478.856Z" fill="white"/>
<path d="M402.686 0.454102H390.373V5.42861H399.828L404.768 14.0017L399.828 22.6101H388.362V5.46389V5.42861V0.454102H383.388V5.42861V22.6101V27.5846H388.362H402.686L410.518 14.0017L402.686 0.454102Z" fill="white"/>
</svg>
