<?xml version="1.0" encoding="UTF-8"?> <svg xmlns="http://www.w3.org/2000/svg" width="98" height="17" viewBox="0 0 98 17" fill="none"> <path d="M97.4123 12.0363V0.655273H94.4786V10.351L89.4019 13.2638L84.346 10.351V0.655273H81.4123V12.0363L89.4019 16.6553L97.4123 12.0363Z" fill="#382459"></path> <path d="M0.933838 5.27426V16.6553H3.86752V6.95956L8.92343 4.04669L14.0001 6.95956V16.6553H16.9338V5.27426L8.92343 0.655273L0.933838 5.27426Z" fill="#382459"></path> <path d="M54.3018 0.655273V12.5564L44.1692 0.655273H41.2355V16.6553H44.1692V5.17022L53.9273 16.6553H54.3018H54.5515H57.2355V0.655273H54.3018Z" fill="#382459"></path> <path d="M74.4007 13.7217H61.3344V16.6554H74.4007H77.3343V13.7217V10.8088H74.4007V13.7217Z" fill="#382459"></path> <path d="M77.3343 3.58895V0.655273H61.3344V0.67608V3.58895V7.16762V9.14421V10.1013H77.3343V7.16762H64.2472V3.58895H77.3343Z" fill="#382459"></path> <path d="M32.4138 0.655273H25.1524V3.58895H30.7284L33.6413 8.64486L30.7284 13.7216H23.9664V3.60976V3.58895V0.655273H21.0327V3.58895V13.7216V16.6553H23.9664H32.4138L37.0327 8.64486L32.4138 0.655273Z" fill="#382459"></path> </svg> 